Abduction_states
version=1
nRows=7
nColumns=41
inDegrees=yes

# SIMM Motion File Header:
name Abduction_states
datacolumns 41
datarows 7
otherdata 1
range 2.01553238 2.27438264
endheader
time	/jointset/ground_thorax/thorax_tilt/value	/jointset/ground_thorax/thorax_tilt/speed	/jointset/ground_thorax/thorax_list/value	/jointset/ground_thorax/thorax_list/speed	/jointset/ground_thorax/thorax_rotation/value	/jointset/ground_thorax/thorax_rotation/speed	/jointset/ground_thorax/thorax_tx/value	/jointset/ground_thorax/thorax_tx/speed	/jointset/ground_thorax/thorax_ty/value	/jointset/ground_thorax/thorax_ty/speed	/jointset/ground_thorax/thorax_tz/value	/jointset/ground_thorax/thorax_tz/speed	/jointset/sternoclavicular/sternoclavicular_r2/value	/jointset/sternoclavicular/sternoclavicular_r2/speed	/jointset/sternoclavicular/sternoclavicular_r3/value	/jointset/sternoclavicular/sternoclavicular_r3/speed	/jointset/unrotscap/unrotscap_r3/value	/jointset/unrotscap/unrotscap_r3/speed	/jointset/unrotscap/unrotscap_r2/value	/jointset/unrotscap/unrotscap_r2/speed	/jointset/acromioclavicular/acromioclavicular_r2/value	/jointset/acromioclavicular/acromioclavicular_r2/speed	/jointset/acromioclavicular/acromioclavicular_r3/value	/jointset/acromioclavicular/acromioclavicular_r3/speed	/jointset/acromioclavicular/acromioclavicular_r1/value	/jointset/acromioclavicular/acromioclavicular_r1/speed	/jointset/unrothum/unrothum_r1/value	/jointset/unrothum/unrothum_r1/speed	/jointset/unrothum/unrothum_r3/value	/jointset/unrothum/unrothum_r3/speed	/jointset/unrothum/unrothum_r2/value	/jointset/unrothum/unrothum_r2/speed	/jointset/shoulder0/elv_angle/value	/jointset/shoulder0/elv_angle/speed	/jointset/shoulder1/shoulder_elv/value	/jointset/shoulder1/shoulder_elv/speed	/jointset/shoulder1/shoulder1_r2/value	/jointset/shoulder1/shoulder1_r2/speed	/jointset/shoulder2/shoulder_rot/value	/jointset/shoulder2/shoulder_rot/speed
      2.01553238	      0.00000000	      0.00000000	      0.00000000	      0.00000000	     -0.00000000	     -0.00000000	     -0.00000000	      0.00000000	     -0.00000000	     -0.00000000	      0.00000000	     -0.00000000	    -22.14296306	      0.89299970	      9.37870667	     -0.37823223	     -9.37870667	      0.37823223	     22.14296306	     -0.89299970	     -4.48346508	      0.18081288	     36.23330409	     -1.46124661	     16.28698728	     -0.65683507	    -16.28698728	      0.65683507	    -36.23330409	      1.46124661	      4.48346508	     -0.18081288	     30.00000000	      0.00000000	     91.50071392	     -3.69011636	    -30.00000000	      0.00000000	      0.00000000	      0.00000000
      2.05635195	      0.00000000	      0.00000000	      0.00000000	      0.00000000	     -0.00000000	     -0.00000000	     -0.00000000	      0.00000000	     -0.00000000	     -0.00000000	      0.00000000	     -0.00000000	    -21.99685507	      6.19980097	      9.31682227	     -2.62594101	     -9.31682227	      2.62594101	     21.99685507	     -6.19980097	     -4.45388141	      1.25532392	     35.99422248	    -10.14495093	     16.17951932	     -4.56018823	    -16.17951932	      4.56018823	    -35.99422248	     10.14495093	      4.45388141	     -1.25532392	     30.00000000	      0.00000000	     90.89695617	    -25.61925488	    -30.00000000	      0.00000000	      0.00000000	      0.00000000
      2.09717153	      0.00000000	      0.00000000	      0.00000000	      0.00000000	     -0.00000000	     -0.00000000	     -0.00000000	      0.00000000	     -0.00000000	     -0.00000000	      0.00000000	     -0.00000000	    -21.64568175	     10.86197808	      9.16808195	     -4.60061763	     -9.16808195	      4.60061763	     21.64568175	    -10.86197808	     -4.38277651	      2.19931268	     35.41958530	    -17.77383423	     15.92121805	     -7.98939592	    -15.92121805	      7.98939592	    -35.41958530	     17.77383423	      4.38277651	     -2.19931268	     30.00000000	      0.00000000	     89.44581299	    -44.88463201	    -30.00000000	      0.00000000	      0.00000000	      0.00000000
      2.13799111	      0.00000000	      0.00000000	      0.00000000	      0.00000000	     -0.00000000	     -0.00000000	     -0.00000000	      0.00000000	     -0.00000000	     -0.00000000	      0.00000000	     -0.00000000	    -21.12405432	     14.50864565	      8.94714536	     -6.14517268	     -8.94714536	      6.14517268	     21.12405432	    -14.50864565	     -4.27715837	      2.93768300	     34.56602811	    -23.74100377	     15.53754133	    -10.67165791	    -15.53754133	     10.67165791	    -34.56602811	     23.74100377	      4.27715837	     -2.93768300	     30.00000000	      0.00000000	     87.29030732	    -59.95364896	    -30.00000000	      0.00000000	      0.00000000	      0.00000000
      2.17881068	      0.00000000	      0.00000000	      0.00000000	      0.00000000	     -0.00000000	     -0.00000000	     -0.00000000	      0.00000000	     -0.00000000	     -0.00000000	      0.00000000	     -0.00000000	    -20.47691381	     17.01118041	      8.67304740	     -7.20512746	     -8.67304740	      7.20512746	     20.47691381	    -17.01118041	     -4.14612659	      3.44439148	     33.50708949	    -27.83598884	     15.06154500	    -12.51236693	    -15.06154500	     12.51236693	    -33.50708949	     27.83598884	      4.14612659	     -3.44439148	     30.00000000	      0.00000000	     84.61614766	    -70.29479964	    -30.00000000	      0.00000000	      0.00000000	      0.00000000
      2.21963026	      0.00000000	      0.00000000	      0.00000000	      0.00000000	     -0.00000000	     -0.00000000	      0.00000000	      0.00000000	     -0.00000000	     -0.00000000	      0.00000000	     -0.00000000	    -19.74953281	     18.47174459	      8.36496338	     -7.82375303	     -8.36496338	      7.82375303	     19.74953281	    -18.47174459	     -3.99884787	      3.74012374	     32.31685055	    -30.22596105	     14.52652875	    -13.58666716	    -14.52652875	     13.58666716	    -32.31685055	     30.22596105	      3.99884787	     -3.74012374	     30.00000000	      0.00000000	     81.61041259	    -76.33024599	    -30.00000000	      0.00000000	      0.00000000	      0.00000000
      2.27438264	      0.00000000	      0.00000000	      0.00000000	      0.00000000	     -0.00000000	     -0.00000000	      0.00000000	      0.00000000	     -0.00000000	     -0.00000000	      0.00000000	     -0.00000000	    -18.71266268	     19.21545105	      7.92579448	     -8.13875173	     -7.92579448	      8.13875173	     18.71266268	    -19.21545105	     -3.78890438	      3.89070801	     30.62018372	    -31.44291390	     13.76387153	    -14.13369140	    -13.76387153	     14.13369140	    -30.62018372	     31.44291390	      3.78890438	     -3.89070801	     30.00000000	      0.00000000	     77.32578469	    -79.40344225	    -30.00000000	      0.00000000	      0.00000000	      0.00000000
